<svg width="30" height="30" viewBox="0 0 30 30" fill="none" xmlns="http://www.w3.org/2000/svg">
<path d="M26.6882 3.31131C26.3667 2.99176 25.9609 2.77035 25.5182 2.67295C25.0754 2.57555 24.6141 2.6062 24.1882 2.76131L4.18821 10.4613C3.71824 10.6306 3.31281 10.9423 3.02843 11.353C2.74406 11.7637 2.59491 12.2529 2.60179 12.7523C2.60867 13.2518 2.77123 13.7367 3.06681 14.1394C3.36239 14.5421 3.77626 14.8425 4.25071 14.9988L12.3382 17.6863L15.0007 25.7488C15.154 26.221 15.4507 26.6337 15.8495 26.9295C16.2483 27.2252 16.7293 27.3893 17.2257 27.3988C17.7098 27.4029 18.1833 27.2574 18.5816 26.9822C18.9798 26.707 19.2834 26.3156 19.4507 25.8613L27.1507 5.86131C27.3305 5.43744 27.3825 4.97027 27.3003 4.51723C27.2182 4.0642 27.0054 3.64505 26.6882 3.31131ZM25.4382 5.19881L17.7382 25.1988C17.7048 25.303 17.6374 25.393 17.5467 25.4542C17.456 25.5154 17.3473 25.5443 17.2382 25.5363C17.1316 25.5314 17.029 25.494 16.9441 25.4292C16.8592 25.3645 16.7961 25.2754 16.7632 25.1738L14.1007 17.1863L18.7507 12.5863C18.8385 12.4985 18.9082 12.3942 18.9557 12.2795C19.0033 12.1647 19.0277 12.0418 19.0277 11.9176C19.0277 11.7934 19.0033 11.6704 18.9557 11.5556C18.9082 11.4409 18.8385 11.3366 18.7507 11.2488C18.6629 11.161 18.5586 11.0913 18.4439 11.0438C18.3291 10.9963 18.2062 10.9718 18.082 10.9718C17.9578 10.9718 17.8348 10.9963 17.72 11.0438C17.6053 11.0913 17.501 11.161 17.4132 11.2488L12.8257 15.8363L4.83821 13.1863C4.73666 13.1534 4.64756 13.0903 4.5828 13.0054C4.51803 12.9205 4.48067 12.818 4.47571 12.7113C4.46986 12.6026 4.49965 12.4949 4.56056 12.4047C4.62148 12.3144 4.71019 12.2465 4.81321 12.2113L24.8132 4.51131C24.9091 4.47688 25.0129 4.47042 25.1123 4.4927C25.2118 4.51498 25.3028 4.56507 25.3749 4.63713C25.447 4.70919 25.497 4.80026 25.5193 4.89971C25.5416 4.99916 25.5351 5.10289 25.5007 5.19881H25.4382Z" fill="white"/>
</svg>
