<svg width="158" height="42" viewBox="0 0 158 42" fill="none" xmlns="http://www.w3.org/2000/svg">
<path d="M54.85 41L47 29.6L36.4 15.5H43.55L50.65 25.85L62 41H54.85ZM47.5 25.65L54.65 15.5H61.65L50.55 30.05L47.5 25.65ZM50 30.35L42.3 41H35.35L47 25.9L50 30.35ZM74.6438 41.5C71.9438 41.5 69.5771 40.9333 67.5438 39.8C65.5438 38.6667 63.9771 37.1 62.8438 35.1C61.7438 33.1 61.1938 30.8 61.1938 28.2C61.1938 25.6 61.7438 23.3167 62.8438 21.35C63.9771 19.35 65.5438 17.8 67.5438 16.7C69.5438 15.5667 71.8771 15 74.5437 15C77.0771 15 79.2771 15.5333 81.1438 16.6C83.0104 17.6333 84.4604 19.1 85.4938 21C86.5271 22.9 87.0438 25.1167 87.0438 27.65C87.0438 28.1167 87.0271 28.55 86.9938 28.95C86.9604 29.35 86.9104 29.75 86.8438 30.15H65.0938V25.75H81.9938L80.6938 26.95C80.6938 24.55 80.1438 22.75 79.0438 21.55C77.9438 20.35 76.4104 19.75 74.4438 19.75C72.3104 19.75 70.6104 20.4833 69.3438 21.95C68.1104 23.4167 67.4938 25.5333 67.4938 28.3C67.4938 31.0333 68.1104 33.1333 69.3438 34.6C70.6104 36.0333 72.3938 36.75 74.6938 36.75C76.0271 36.75 77.1938 36.5 78.1938 36C79.1938 35.5 79.9271 34.7333 80.3938 33.7H86.3438C85.5104 36.1 84.0938 38 82.0938 39.4C80.1271 40.8 77.6438 41.5 74.6438 41.5ZM90.2582 41V15.5H96.4082V21.5H96.5582V41H90.2582ZM108.158 41V24.9C108.158 23.3333 107.758 22.15 106.958 21.35C106.158 20.55 104.992 20.15 103.458 20.15C102.125 20.15 100.925 20.45 99.8582 21.05C98.8249 21.65 98.0082 22.4833 97.4082 23.55C96.8415 24.6167 96.5582 25.85 96.5582 27.25L95.9082 21.15C96.7749 19.2833 98.0415 17.8 99.7082 16.7C101.375 15.5667 103.375 15 105.708 15C108.475 15 110.625 15.7833 112.158 17.35C113.725 18.9167 114.508 21 114.508 23.6V41H108.158ZM119.178 41V15.5H125.478V41H119.178ZM118.878 11.3V4.35H125.728V11.3H118.878ZM142.169 41.5C139.469 41.5 137.085 40.9333 135.019 39.8C132.985 38.6667 131.402 37.1 130.269 35.1C129.135 33.0667 128.569 30.75 128.569 28.15C128.569 25.55 129.135 23.2667 130.269 21.3C131.402 19.3333 132.985 17.8 135.019 16.7C137.085 15.5667 139.469 15 142.169 15C144.902 15 147.285 15.5667 149.319 16.7C151.352 17.8 152.935 19.3333 154.069 21.3C155.202 23.2667 155.769 25.55 155.769 28.15C155.769 30.75 155.185 33.0667 154.019 35.1C152.885 37.1 151.302 38.6667 149.269 39.8C147.235 40.9333 144.869 41.5 142.169 41.5ZM142.169 36.45C143.502 36.45 144.702 36.1167 145.769 35.45C146.835 34.75 147.669 33.7833 148.269 32.55C148.869 31.2833 149.169 29.8 149.169 28.1C149.169 25.6 148.502 23.6333 147.169 22.2C145.869 20.7667 144.202 20.05 142.169 20.05C140.135 20.05 138.452 20.7667 137.119 22.2C135.785 23.6333 135.119 25.6 135.119 28.1C135.119 29.8 135.419 31.2833 136.019 32.55C136.652 33.7833 137.485 34.75 138.519 35.45C139.585 36.1167 140.802 36.45 142.169 36.45Z" fill="white"/>
<path d="M18.4134 24.3061L14.2397 31.9169H28.9703L33.8805 40.7552L38.5451 32.8989L28.9703 16.6953L24.7966 23.8151L18.4134 24.3061Z" fill="#7F6AFF"/>
<path d="M4.66467 41L0 32.8982L19.8862 0L24.0599 8.1018L4.66467 41Z" fill="#7F6AFF"/>
</svg>
